<?xml version="1.0" encoding="utf-8"?>
<!-- Generator: Adobe Illustrator 25.3.1, SVG Export Plug-In . SVG Version: 6.00 Build 0)  -->
<svg version="1.1" id="Camada_1" xmlns="http://www.w3.org/2000/svg" xmlns:xlink="http://www.w3.org/1999/xlink" x="0px" y="0px"
	 viewBox="0 0 223 230" style="enable-background:new 0 0 223 230;" xml:space="preserve">
<style type="text/css">
	.st0{fill:none;}
	.st1{fill:#FFFFFF;}
	.st2{fill:#FF6900;}
</style>
<rect x="-196.6" y="-261.5" class="st0" width="595.3" height="841.9"/>
<g>
	<rect x="29.8" y="58" class="st1" width="161" height="107.3"/>
	<path class="st2" d="M198.9,27.6C178.1,6.9,148.1,4.6,111.5,4.6C74.8,4.6,44.8,6.9,24,27.7C3.2,48.5,1.1,78.5,1.1,115.1
		s2.1,66.6,22.9,87.4c20.8,20.8,50.8,22.9,87.5,22.9c36.7,0,66.7-2.1,87.5-22.9c20.8-20.8,22.9-50.8,22.9-87.4
		C221.9,78.4,219.8,48.5,198.9,27.6 M103.4,155.9c0,0.7-0.6,1.4-1.4,1.4H83.2c-0.8,0-1.4-0.6-1.4-1.4v-49.3c0-0.7,0.6-1.4,1.4-1.4
		H102c0.8,0,1.4,0.6,1.4,1.4V155.9z M140.2,155.9c0,0.7-0.6,1.4-1.4,1.4h-17.9c-0.8,0-1.4-0.6-1.4-1.4v-0.2v-42.3
		c0-7.4-0.4-15-4.3-18.9c-3.3-3.3-9.4-4.1-15.8-4.2H66.9c-0.8,0-1.4,0.6-1.4,1.4v59.8v4.4c0,0.7-0.6,1.4-1.4,1.4H46.2
		c-0.8,0-1.4-0.6-1.4-1.4V74.1c0-0.8,0.6-1.4,1.4-1.4H98c13.5,0,27.7,0.6,34.6,7.6c7,7,7.6,21.1,7.6,34.7V155.9z M177.2,155.9
		c0,0.7-0.6,1.4-1.4,1.4h-17.9c-0.8,0-1.4-0.6-1.4-1.4V74.1c0-0.8,0.6-1.4,1.4-1.4h17.9c0.8,0,1.4,0.6,1.4,1.4V155.9z"/>
</g>
</svg>